<?xml version="1.0" encoding="utf-8"?>
<!-- Generator: Adobe Illustrator 22.0.1, SVG Export Plug-In . SVG Version: 6.00 Build 0)  -->
<svg version="1.1" id="Layer_1" xmlns="http://www.w3.org/2000/svg" xmlns:xlink="http://www.w3.org/1999/xlink" x="0px" y="0px"
	 viewBox="0 0 185.4 58" style="enable-background:new 0 0 185.4 58;" xml:space="preserve">
<style type="text/css">
	.st0{fill:#FFFFFF;}
	.st1{fill:#EE3224;}
</style>
<path class="st0" d="M46.6,53.4L46.6,53.4V4.6c0,0,0-4.1-4.1-4.1H4.1c0,0-4.1,0-4.1,4.1v48.8c0,0,0,4.1,4.1,4.1h38.3
	C42.5,57.5,46.6,57.5,46.6,53.4"/>
<g>
	<path class="st1" d="M46.6,53.4V4.6c0,0,0-4.1-4.1-4.1H4.1c0,0-4.1,0-4.1,4.1v48.8c0,0,0,4.1,4.1,4.1h38.3
		C42.5,57.5,46.6,57.5,46.6,53.4L46.6,53.4z M42.5,10.3c-0.1,0.4-0.1,0.8-0.2,1.2c0,0.9,0,1.8,0,2.7c-0.1,0.4-0.1,0.8-0.2,1.2
		c-0.1,4.3-0.1,8.6-0.2,12.9c0,1.7,0,3.1-0.3,4.6c-0.1,0.6-0.1,1.2-0.5,1.7c-0.2,0.2-0.4,0.3-0.5,0.5c-0.1,0.1-0.4,0.4-0.6,0.4
		c0-0.1,0-0.1,0-0.2c-0.2-0.5-0.1-1.2-0.1-1.7c0-1.5-0.1-3.2,0-4.7c0-1.4,0-2.8-0.1-4.2c-0.1-0.5-0.2-0.9-0.3-1.4c0-0.9,0-1.7,0-2.6
		c0-1,0.1-1.9,0.1-2.8c0-0.5-0.1-1.1-0.1-1.6c0.2-1,0.3-2,0.5-2.9c0-1.1-0.1-2.2-0.4-3.2c-0.1-0.3-0.7-0.9-0.7-1
		c-0.1,0-0.1,0.1-0.2,0.1c-0.1,0-0.1,0.1-0.2,0.1c-0.4,0.4-0.2,1.1-0.3,1.7c-0.1,0.6-0.2,1.3-0.3,1.9c-0.2,0.7-0.6,1.3-0.8,1.9
		c0,0.4-0.1,0.8-0.1,1.1c-0.2,0.8-0.5,1.7-0.7,2.5c-0.2,0.5-0.3,1.1-0.5,1.6c-0.1,0.6-0.2,1.2-0.3,1.8c-0.1,0.4-0.3,0.9-0.4,1.3
		c-0.3,1.4-0.3,3.2-0.8,4.3c-0.3,0.5-0.8,0.6-1.4,0.5c-0.7-0.2-1.2-0.7-1.9-0.8c-1.4-0.3-2.9-0.3-4.4-0.4c-0.8-0.1-1.5-0.2-2.3-0.4
		c-1.2,0-2.4,0.1-3.6,0.1c-1.2,0-2.3-0.2-3.4-0.2c-0.9,0-1.8,0.1-2.7,0.1c-0.8,0.2-1.3,1.7-2.3,1c-0.3-0.2-0.5-0.6-0.5-0.9
		c0-0.8,0-1.6,0-2.3c-0.2-1-0.3-2-0.5-3.1c-0.2-1.7-0.5-3.3-0.8-4.9c-0.1-0.7-0.1-1.5-0.2-2.1c-0.2-0.9-0.9-1.6-1.5-2.3
		c-0.2-0.3-0.4-0.4-0.6-0.7C8,10.6,8.1,9.2,7.3,9.2C6.8,10.5,6.8,13.5,7,15c0.1,0.5,0.2,1,0.3,1.5c-0.1,0.8-0.1,1.6-0.2,2.4
		c0,1.1,0.1,2.2,0.1,3.3c0.1,0.4,0.2,0.8,0.2,1.3c0,0.6-0.2,1.1-0.3,1.6c0,0.4,0,0.9-0.1,1.3C7,27,6.5,27.9,5.7,27.7
		c-1.4-0.3-0.8-4.4-0.9-5.6c-0.1-1,0.7-1.1,0.7-1.8c0-0.5-0.6-0.9-0.6-1.4c-0.2-1.4-0.1-2.9-0.1-4.3c0-0.9-0.1-1.8-0.1-2.7
		c0.1-0.4,0.1-0.8,0.2-1.3c0-0.7-0.2-1.2-0.3-1.8C4.5,8.3,4.8,7.1,4.9,6.7c0.3-0.6,1-1,1.7-1c0.3-0.2,0.5-0.3,0.8-0.5
		c0.7,0,1.1,0.3,1.7,0.3c0.3,0,0.7-0.1,1-0.1c0.6,0,1.3,0.1,1.9,0.1c0.3-0.2,0.6-0.2,1-0.2c0.9-0.4,2,0.1,2.8,0.3
		c0.6,0,1.2,0,1.8,0.1c0.4-0.2,2.9,0.1,3.6,0.1c0.3,0,0.5,0,0.8,0c0.5,0,0.8,0,1.2,0.1c0.6,0.1,1.1,0.5,1.7,0.5
		c0.5-0.7,1.1-0.8,1.8-1c0.1,0,0.1,0,0.1-0.1c0.8,0.2,1.6,0.3,2.6,0.3c0.5-0.2,3,0.5,3.8,0.5c0.3-0.2,0.6-0.2,1-0.2
		c0.4-0.1,0.9,0,1.4,0c0.6-0.2,1.7,0.1,2.4,0.1c0.4,0,0.9-0.1,1.4-0.1c0.2,0,0.2,0,0.2-0.1c1.4,0.1,2.2,1.2,2.5,2.4
		c0.1,0.4-0.1,0.8,0,1.2C42.3,9.7,42.4,10,42.5,10.3L42.5,10.3z M42.7,43.2c0,0.5-0.5,1-0.6,1.6c0,1-0.1,2-0.1,2.9
		c0,0.7,0.2,1.4,0,2.1c-0.2,0.8-1.2,1.5-2,1.9c-0.8,0.4-2.3,0.8-3.2,0.9c-0.3,0-0.7-0.1-1-0.1c-0.5,0.1-1,0.2-1.5,0.2
		c-0.4,0-0.8-0.1-1.1-0.2c-0.5-0.1-1,0.1-1.5,0.1c-0.4,0-0.7-0.1-1.1-0.1c-1.1,0-2.2,0.1-3.3,0.1c-0.3-0.1-0.5-0.1-0.8-0.2
		c-0.3,0-0.6,0-0.9,0c-0.2-0.1-0.5-0.1-0.7-0.2c-0.6,0-1.3-0.1-1.9-0.1c-0.5-0.1-1-0.3-1.5-0.4c-0.5,0-1,0.3-1.5,0.4
		c-0.6,0.1-1.2,0.1-1.9,0.2c-0.3,0.1-0.5,0.1-0.8,0.2c-0.6,0-1.1-0.3-1.7-0.3c-0.7,0-1.4,0.1-2.1,0.1c-0.4,0.1-0.7,0.2-1.1,0.2
		c-0.9,0-1.6-0.4-2.4-0.4c-0.6,0-1.1,0.3-1.7,0.3c-0.7-0.1-1.5-0.2-2.2-0.4c-0.4-0.2-1.3-1.3-1.4-1.7c-0.3-0.7,0-1.5,0-2.2
		c0-0.4-0.1-0.8-0.1-1.1c0-0.9,0.1-1.7,0.1-2.6c0-0.3-0.1-0.7-0.1-1c0.1-0.3,0.1-0.7,0.2-1c0-0.9,0-1.7,0-2.6
		c0.1-0.6,0.1-1.1,0.2-1.7c0-1,0-2,0-2.9c0-0.6,0-1.1,0-1.7c0-0.3-0.1-0.7-0.1-1c0-0.5,0.1-0.9,0.1-1.4c0-0.6-0.1-1.3,0.1-1.9
		c0.1-0.3,0.5-0.5,0.8-0.5c0,0,0-0.1,0-0.1c0.5,0.1,1.2,0.4,1.3,0.9c0.1,0.6-0.2,1.2-0.3,1.8c-0.1,0.8-0.1,1.6-0.3,2.4
		c-0.3,1.9-0.2,4.1-0.2,6c0,0.7-0.2,1.6,0.1,2.1c0.3,0.4,0.9,0.5,1.4,0.5c0.3,0,0.6-0.1,0.9-0.1c0.3,0,0.7-0.1,1-0.1
		c0.3-0.2,0.7-0.2,1.1-0.2c0.9-0.6,4.8-1.9,4.8-3.2c-0.8,0.1-1.6,0.3-2.4,0.3c-0.8,0-2.4-0.4-2.4-1.4c0.5-0.3,1-0.5,1.7-0.5
		c0.2-0.1,0.5-0.2,0.8-0.2c0.5,0,1,0,1.5,0c0.3-0.1,0.8-0.1,1.1-0.1c0.7-0.4,1.8-0.2,2.6-0.2c0.3-0.1,0.5-0.2,0.8-0.3
		c0.1-0.1,0.3-0.3,0.3-0.5c0.1-1.2-5.6-0.1-6.5-0.1c-0.5,0-2.4-1.1-1.7-1.1c0.5-0.9,1.9-0.7,2.9-0.7c0.3,0,0.6-0.1,0.9-0.1
		c0.8,0,1.5,0,2.3,0c0.8-0.5,1.2-0.1,2-0.1c0.2,0,0.5-0.1,0.7-0.1c-0.1-0.4-0.2-0.7-0.6-0.8c-0.4-0.1-0.8,0.1-1.2,0.1
		c-0.3-0.1-0.6-0.1-0.9-0.2c-0.8-0.1-2.2-0.1-2.9,0c-0.7,0.2-1.4,0.4-2.1,0.6c-0.8,0.2-1.8,0.1-2.7,0.1c-1.8-0.1-2.2-2.1-0.1-2.1
		c0.2,0,0.4-0.1,0.6-0.1c0.4,0,0.8,0,1.1,0c0.3-0.2,1.7-0.1,2.1-0.1c0.3-0.1,0.9,0,1.2,0c1,0,1.8,0,2.8,0c0.7-0.2,1.4,0.4,2.1,0.1
		c1.1-0.5,1.2-2,2.7-2.1c1.5-0.1,1.5,1.7,2.8,2c2.1,0.5,4.7,0,6.8,0.2c0.6,0.1,1.3,0.1,1.9,0c0.7-0.1,3.1-1.4,3.4,0.2
		c0.2,1-1.3,1.9-2.2,2c-0.9,0-1.8-0.5-2.7,0c-0.4,0.3-0.2,1-0.4,1.4c-0.1,0.3-0.3,0.5-0.7,0.5c-1.4,0.2-2.9,0.1-4.3,0
		c-0.8,0-1.7-0.2-2.4,0.1c-0.2,0.1-0.5,0.4-0.5,0.7c0,0,0.1,0,0.1,0c0.8,0.4,2.5,0.5,3.5,0.5c1-0.4,2.4,0.1,3.4-0.1
		c0.1,0,0.2,0,0.2-0.1c0.6,0.1,1.9,0.6,1.5,1.5c-0.4,0.8-2.1,0.7-2.1,1.5c0,0.9,2.5,1.9,3.2,2.4c0.3,0.2,0.6,0.4,1,0.7
		c0.8,0.3,1.8,0.5,2.8,0.6c0.5,0,0.9-0.2,1.1-0.6c0.4-0.7,0.4-6.1,2.2-5.3c0.8,0.3,0.5,4.1,0.7,5C42.2,42.5,42.7,42.7,42.7,43.2
		L42.7,43.2z M39.2,49.2c0.4-0.4,0.7-1.6,0.3-2.1c-0.1,0-0.1-0.1-0.2-0.1c-0.5-0.3-1.1-0.4-1.6-0.6c-0.7-0.3-1.3-0.5-2-0.8
		c-0.8-0.4-1.4-1.1-2.1-1.6c-0.3-0.2-0.7-0.3-1-0.5c-1.1-0.5-2-1.6-3.2-1.8c-0.4,0.3-0.7,0.6-1.1,0.9c-0.5,0.3-2,0.3-2,1.1
		c0,2.1,5.8,2.4,4.2,4.5c-0.3,0.3-0.5,0.4-0.9,0.5c-1.5,0.2-2.9-1.2-3.9-2c-0.4-0.3-0.9-0.9-1.4-0.9c0-0.2,0-0.1-0.1-0.1
		c-0.6,1-0.4,1.3-0.5,2.5c-0.1,0.5-0.1,1.3,0.3,1.7c0.6,0.5,4.5,0.5,5.6,0.5c0.7-0.3,1.8-0.1,2.6-0.1c0.3,0,0.5-0.1,0.8-0.1
		c0.5-0.2,1.1-0.1,1.7-0.1c0.5-0.2,2.4-0.1,3.1-0.1c0.2-0.1,0.6-0.1,0.6-0.3C38.5,49.6,38.8,49.5,39.2,49.2L39.2,49.2z M26.9,40.2
		c0.2-1-2.3-2.4-3-2.6c-1,0.3-2.1,0-3.1,0.3c-1,0.3-1.4,1.3-2.2,1.9c-0.7,0.5-1.8,0.4-2.2,1.3c0,0,0,0,0,0c-0.1,0.1-0.2,0.3,0,0.3
		c0.5,0.8,1.9,0.4,2.7,0.6c0.5,0.1,0.8,0.5,1.4,0.5c0-0.1,0-0.1,0-0.2c0,0,0.1,0,0.1,0c-0.2-1.1,0.2-3.5,1.8-3.2
		c0.5,0.1,1.1,0.5,1.4,0.9c0.3,0.4,0.4,1.6,1.1,1.6c0.1,0,0.1,0,0.2,0C25.6,41.4,26.7,40.9,26.9,40.2L26.9,40.2z M24.3,33.5
		c0.4,0.2,0.8,0.2,1.4,0.2c0.2-0.1,0.9-0.1,0.9-0.3c0.4,0.1,1.2,0.3,1.2-0.5c-1,0-2-0.1-3.1-0.1c0,0,0,0.1,0,0.1
		C24.5,33,24.3,33.2,24.3,33.5L24.3,33.5z M17.4,44.3c-1.1-0.1-2.7-0.2-2.7-1.6c-0.3,0-0.5-0.1-0.8-0.1c-0.5,0.5-1.1,0.7-1.7,1.2
		c-0.3,0.3-0.6,0.6-0.8,0.8c-1.2,0.6-3.7,0.8-4.5,1.6c-0.3,0.3-0.3,0.9-0.3,1.3c0,1.6,0.4,1.9,1.9,2.1c0.6,0.1,1.1,0.1,1.7,0.2
		c0.2-0.2,0.4-0.3,0.8-0.2c0.3,0.1,0.7,0.2,1,0.3c0.6,0.1,1.3,0.2,1.9,0.3c1.8,0.1,3.7,0.1,5.5,0.2c0.3-0.2,0.6-0.2,0.9-0.4
		c0.9-0.7-0.1-1.7-0.3-2.4c-0.1-0.4-0.1-0.9-0.2-1.3c-0.7-0.1-1.1,0.5-1.6,0.9c-0.7,0.5-2.8,2-3.7,1.8c-0.3-0.1-0.6-0.4-0.8-0.6
		c-0.3-0.3-0.7-1-0.3-1.5c0.8-1,3-0.9,3.7-2c0.1-0.1,0.2-0.4,0-0.4C17.4,44.4,17.4,44.4,17.4,44.3L17.4,44.3z M34.5,10.3
		c0.1-0.4,0.5-0.8,0.3-1.4c-0.3-1.1-3.3-0.7-4.3-0.7c-1-0.1-2-0.3-3.1-0.4c-0.9,0.3-1.8,0.3-2.8,0.4c-2.2,0.1-4.3,0.2-6.5,0
		c-0.3,0-0.6,0.2-0.9,0.2c0,0.1,0,0.2,0,0.3c1.1,0.9,1,1,2.6,1c0.7-0.3,1.6,0.1,2.4,0.1c0.3-0.2,0.7-0.2,1.1-0.2
		c0.7-0.3,1.5,0,2.3,0c0.5-0.1,0.9-0.2,1.4-0.3c1,0.9,2.9,0.3,4.2,0.4c0.4,0.1,0.8,0.2,1.2,0.3c0.5,1.6-0.7,2.5-2.2,2.5
		c-0.2,1.4,1.7,0.6,1.7,2c0,0.3,0,0.6-0.2,0.8c-0.7,1-5.6-0.8-5,1.4c0.1,0.4,0.4,0.6,0.8,0.6c0.3-0.1,0.5-0.1,0.8-0.2
		c1.2-0.3,2.1-0.6,3.3-0.9c0.5-0.1,1-0.2,1.6-0.2c0.2-0.1,0.4-0.2,0.5-0.4c0.3-0.5,0.5-3.2,0.5-3.9C34.4,11.1,34.4,10.7,34.5,10.3
		L34.5,10.3z M16.7,9.2c0.6-0.8-0.7-0.9-1.2-0.9C15.1,8.3,13,8.5,13,8.7c0,0-0.1,0-0.1,0c0.1,0.2,0.1,0.4,0.3,0.5
		c0.4,0.2,2.3,0.4,2.9,0.4C16.3,9.4,16.5,9.4,16.7,9.2L16.7,9.2z M13,12.5c-0.4,0.3-0.4,0.9-0.4,1.4c0,1.3,0,2.6,0.1,3.7
		c0.1,0.4,0.2,0.8,0.3,1.3c0.2,0,0.3,0,0.5,0c0.1-0.1,0.2-0.1,0.2-0.2c0.7-0.5,2.1-1.4,2.2-2.4c0-0.2,0.1-0.6-0.1-0.6
		c-0.7-0.3-2.9,0.2-2.2-1.4c0.4-1.1,3.3-0.1,3.3-1.5c0.6,0.2,0.9,0.8,1.5,0.9c0.6,0.2,1.2-0.1,1.8-0.1c0.5,0,0.9,0.2,1.5,0.1
		c0.2,0,0.3-0.1,0.4-0.2c1.1-1.7-2.1-2-2.9-2.3c-1.1,0.5-2.7,0.5-3.9,0.7C14.9,11.8,13.2,12.3,13,12.5L13,12.5z M19.8,18.2
		c0.1-0.1,0.2-0.2,0.3-0.2c-0.3-0.8-0.8-1.1-1.6-1.2c-0.1,0.1-0.9,0.7-0.9,0.7c0,0.2-0.1,0.2,0.1,0.2c0.1,0.2,0.3,0.4,0.6,0.5
		C18.5,18.3,19.8,18.3,19.8,18.2L19.8,18.2z M13.4,19.7c0,0-0.1,0-0.1,0c0.3,1.1,1.4,1.4,2.5,1.4c0.2,0,0.5-0.1,0.7-0.1
		c0.2,0,0.5-0.1,0.7-0.1c0.4-0.1,0.9,0.2,1.4,0.2c1,0,1.9,0,2.8,0c1.3-0.5,2.1,1.5,0.9,1.9c-0.7,0.2-1.3-0.1-2-0.1
		c-1.1,0-5.9,0.1-5.9,1.2c0.8,0.5,2.1,0.6,3.2,0.6c0.5-0.2,1.7,0.1,2.4,0.1c1-0.4,2.4,0.3,3.3-0.3c0.5-0.4,0.9-1.6,1.2-2.1
		c0.5-0.9,1.4-1.8,1.5-3c0-0.9-0.8-1.6-1.2-2.4c-0.2-0.4-0.4-0.9-0.7-1.3c-0.4-0.4-0.8-0.5-1.3-0.6c-0.3,0.1-0.6,0.3-0.9,0.4
		c-0.2,0.1-0.4,0.5-0.6,0.5c0,0.2-0.1,0.2,0.1,0.2c0.4,0.8,3.3,2.8,1.8,3.9c-0.1,0-0.1,0.1-0.2,0.1c-0.1,0-0.2,0.1-0.3,0.1
		c-0.1,0-0.1,0-0.2,0c-0.9,0-1.6-0.6-2.5-0.7c-1.4-0.1-2.8,0.2-4.2,0.1c-0.5,0-0.9,0.1-1.3,0C14.1,19.7,13.4,19.4,13.4,19.7
		L13.4,19.7z M25,13.2c0.3,0.3,2.1,0.4,2.4,0.1c0.8-0.9-0.2-1.5-1-1.6c-0.7,0.2-1.5,0-1.7,0.9C24.7,12.8,24.8,13.1,25,13.2L25,13.2z
		 M25.5,24c-0.1,0.3-0.1,0.6,0.1,0.8c0.6,0.6,2.3,0.6,3.2,0.6c0.3-0.2,1.6-0.5,1.6-0.9c0.3,0.1,0.7,0.3,1,0.2
		c0.4-0.2-0.3-1.2-0.4-1.3c-0.6-0.7-2-1.7-3-1.9C26.8,22,25.9,22.4,25.5,24L25.5,24z M32.7,21.5c0.6-0.6,1.1-1.3,1-2.3
		c-0.1-0.3-0.2-0.7-0.3-1c-0.3,0-0.5-0.1-0.8-0.1c-0.8,0.4-2.2,0.1-2.7,1C29.4,20.1,31.8,21.5,32.7,21.5L32.7,21.5z"/>
	<path d="M185.4,0.6h-4.8l-6.4,11.1l-6.5-11.1h-5l9.2,15v9.7h4.3v-9.7L185.4,0.6L185.4,0.6z M165.8,25.3l-9.4-24.7h-4.6l-9.4,24.7
		h4.4l2.3-6.5h9.8l2.3,6.5H165.8L165.8,25.3z M157.7,15.5h-7.5L154,4.8h0.1h0L157.7,15.5L157.7,15.5z M135.8,25.3h4.3V0.6h-4.3v9.8
		h-11.1V0.6h-4.3v24.7h4.3V14.2h11.1V25.3L135.8,25.3z M119.8,32.1c-7.6,0-12.2,5.9-12.2,12.9S112.2,58,119.8,58
		c7.6,0,12.2-5.9,12.2-12.9S127.4,32.1,119.8,32.1L119.8,32.1z M127.5,45.1c0,4.7-2.3,9.4-7.7,9.4c-5.5,0-7.7-4.7-7.7-9.4
		c0-4.7,2.3-9.4,7.7-9.4C125.3,35.7,127.5,40.3,127.5,45.1L127.5,45.1z M109.9,4.3h7.8V0.6H97.8v3.7h7.7v21h4.3V4.3L109.9,4.3z
		 M101,25.3L91.6,0.6H87l-9.4,24.7H82l2.3-6.5h9.8l2.3,6.5H101L101,25.3z M93,15.5h-7.5l3.7-10.6h0.1h0L93,15.5L93,15.5z M58.7,12.9
		c0-4.7,2.2-9.4,7.4-9.4c3.6,0,5.4,2.1,6.1,4.9h4.3C76,3.1,71.6,0,66.1,0c-7.3,0-11.7,5.9-11.7,12.9c0,7.1,4.4,12.9,11.7,12.9
		c5.9,0,10.1-4.1,10.4-10h-4.2c-0.3,3.6-2.4,6.5-6.2,6.5C60.9,22.4,58.7,17.7,58.7,12.9L58.7,12.9z M65.7,32.7H54.4v24.7h4.5v-9.5
		h6.8c7.3,0,8.7-4.5,8.7-7.6C74.3,37.3,72.9,32.7,65.7,32.7L65.7,32.7z M65.5,36.2c2.4,0,4.4,0.8,4.4,4.1c0,3.1-2.5,4.1-4.5,4.1
		h-6.5v-8.2H65.5L65.5,36.2z M85.1,32.7h-4.5v24.7h4.5V46.3h11.6v11.1h4.5V32.7h-4.5v9.8H85.1V32.7L85.1,32.7z M156.7,32.7h-20.6
		v3.7h8.1v21h4.5v-21h8.1V32.7L156.7,32.7z M160.8,45.1c0,7.1,4.6,12.9,12.2,12.9c7.6,0,12.2-5.9,12.2-12.9s-4.6-12.9-12.2-12.9
		C165.4,32.1,160.8,38,160.8,45.1L160.8,45.1z M165.3,45.1c0-4.7,2.3-9.4,7.7-9.4c5.5,0,7.7,4.7,7.7,9.4c0,4.7-2.3,9.4-7.7,9.4
		C167.6,54.5,165.3,49.8,165.3,45.1L165.3,45.1z"/>
</g>
</svg>
